<mxfile host="app.diagrams.net" modified="2024-03-02T17:57:23.974Z" agent="Mozilla/5.0 (Windows NT 10.0; Win64; x64) AppleWebKit/537.36 (KHTML, like Gecko) Chrome/122.0.0.0 Safari/537.36" etag="QvD5u7v9xVqzaklc9nYC" version="24.0.1" type="device">
  <diagram name="1 oldal" id="_GnZMN1wjHcCsDZnyUZf">
    <mxGraphModel dx="2261" dy="1878" grid="1" gridSize="8" guides="1" tooltips="1" connect="1" arrows="1" fold="1" page="1" pageScale="1" pageWidth="827" pageHeight="1169" math="0" shadow="0">
      <root>
        <mxCell id="0" />
        <mxCell id="1" parent="0" />
        <mxCell id="l6XhNteA-fRUSBPGIW-Q-1" value="" style="dashed=1;rounded=0;whiteSpace=wrap;html=1;" parent="1" vertex="1">
          <mxGeometry x="15" y="-5" width="740" height="590" as="geometry" />
        </mxCell>
        <mxCell id="frDGmIUV9sdT1yF0FRaX-1" value="" style="group" parent="1" vertex="1" connectable="0">
          <mxGeometry x="-110" y="25" width="110" height="50" as="geometry" />
        </mxCell>
        <mxCell id="frDGmIUV9sdT1yF0FRaX-2" value="Látogató" style="shape=ellipse;html=1;dashed=0;whitespace=wrap;perimeter=ellipsePerimeter;" parent="frDGmIUV9sdT1yF0FRaX-1" vertex="1">
          <mxGeometry width="110.00000000000001" height="50" as="geometry" />
        </mxCell>
        <mxCell id="frDGmIUV9sdT1yF0FRaX-4" value="" style="group" parent="1" vertex="1" connectable="0">
          <mxGeometry x="319.99999999999994" y="25" width="150.00000000000006" height="80" as="geometry" />
        </mxCell>
        <mxCell id="frDGmIUV9sdT1yF0FRaX-5" value="" style="html=1;dashed=0;whitespace=wrap;rounded=0;sketch=0;strokeColor=#000000;align=left;" parent="frDGmIUV9sdT1yF0FRaX-4" vertex="1">
          <mxGeometry y="-10" width="150" height="90" as="geometry" />
        </mxCell>
        <mxCell id="frDGmIUV9sdT1yF0FRaX-6" value="1." style="text;html=1;resizable=0;autosize=1;align=center;verticalAlign=middle;points=[];fillColor=none;rounded=0;sketch=0;strokeColor=#000000;" parent="frDGmIUV9sdT1yF0FRaX-4" vertex="1">
          <mxGeometry y="-10" width="30" height="30" as="geometry" />
        </mxCell>
        <mxCell id="frDGmIUV9sdT1yF0FRaX-7" value="Könyvek böngészése" style="text;html=1;resizable=0;autosize=1;align=center;verticalAlign=middle;points=[];fillColor=none;strokeColor=none;rounded=0;sketch=0;" parent="frDGmIUV9sdT1yF0FRaX-4" vertex="1">
          <mxGeometry x="7" y="29" width="136" height="32" as="geometry" />
        </mxCell>
        <mxCell id="frDGmIUV9sdT1yF0FRaX-8" value="" style="rounded=0;whiteSpace=wrap;html=1;sketch=0;strokeColor=#000000;align=left;" parent="frDGmIUV9sdT1yF0FRaX-4" vertex="1">
          <mxGeometry x="30" y="-10" width="120" height="30" as="geometry" />
        </mxCell>
        <mxCell id="l6XhNteA-fRUSBPGIW-Q-9" value="" style="endArrow=none;html=1;rounded=0;entryX=0.998;entryY=0.653;entryDx=0;entryDy=0;exitX=0.75;exitY=1;exitDx=0;exitDy=0;entryPerimeter=0;" parent="frDGmIUV9sdT1yF0FRaX-4" source="frDGmIUV9sdT1yF0FRaX-5" target="frDGmIUV9sdT1yF0FRaX-5" edge="1">
          <mxGeometry width="50" height="50" relative="1" as="geometry">
            <mxPoint x="40.00000000000006" y="295" as="sourcePoint" />
            <mxPoint x="90.00000000000006" y="245" as="targetPoint" />
          </mxGeometry>
        </mxCell>
        <mxCell id="l6XhNteA-fRUSBPGIW-Q-10" value="" style="dashed=0;aspect=fixed;verticalLabelPosition=bottom;verticalAlign=top;align=center;shape=mxgraph.gmdl.star;strokeColor=none;fillColor=#737373;shadow=0;sketch=0;" parent="frDGmIUV9sdT1yF0FRaX-4" vertex="1">
          <mxGeometry x="134.00000000000006" y="65" width="10" height="10" as="geometry" />
        </mxCell>
        <mxCell id="frDGmIUV9sdT1yF0FRaX-13" value="" style="endArrow=classic;html=1;rounded=0;exitX=-0.003;exitY=0.585;exitDx=0;exitDy=0;entryX=1;entryY=1;entryDx=0;entryDy=0;exitPerimeter=0;" parent="1" source="frDGmIUV9sdT1yF0FRaX-5" target="frDGmIUV9sdT1yF0FRaX-2" edge="1">
          <mxGeometry relative="1" as="geometry">
            <mxPoint x="360" y="230" as="sourcePoint" />
            <mxPoint x="150" y="96" as="targetPoint" />
            <Array as="points" />
          </mxGeometry>
        </mxCell>
        <mxCell id="frDGmIUV9sdT1yF0FRaX-14" value="Könyv adatlapja" style="edgeLabel;resizable=0;html=1;align=center;verticalAlign=middle;" parent="frDGmIUV9sdT1yF0FRaX-13" connectable="0" vertex="1">
          <mxGeometry relative="1" as="geometry">
            <mxPoint x="120" y="12" as="offset" />
          </mxGeometry>
        </mxCell>
        <mxCell id="frDGmIUV9sdT1yF0FRaX-15" value="" style="endArrow=classic;html=1;rounded=0;" parent="1" edge="1">
          <mxGeometry relative="1" as="geometry">
            <mxPoint x="472" y="64" as="sourcePoint" />
            <mxPoint x="832" y="128" as="targetPoint" />
            <Array as="points">
              <mxPoint x="832" y="64" />
            </Array>
          </mxGeometry>
        </mxCell>
        <mxCell id="frDGmIUV9sdT1yF0FRaX-16" value="Könyvek listája" style="edgeLabel;resizable=0;html=1;align=center;verticalAlign=middle;rotation=0;" parent="frDGmIUV9sdT1yF0FRaX-15" connectable="0" vertex="1">
          <mxGeometry relative="1" as="geometry">
            <mxPoint x="70" y="10" as="offset" />
          </mxGeometry>
        </mxCell>
        <mxCell id="frDGmIUV9sdT1yF0FRaX-17" value="" style="group" parent="1" vertex="1" connectable="0">
          <mxGeometry x="319.99999999999994" y="140" width="140" height="80" as="geometry" />
        </mxCell>
        <mxCell id="frDGmIUV9sdT1yF0FRaX-18" value="" style="html=1;dashed=0;whitespace=wrap;rounded=0;sketch=0;strokeColor=#000000;align=left;" parent="frDGmIUV9sdT1yF0FRaX-17" vertex="1">
          <mxGeometry y="-10" width="140" height="90" as="geometry" />
        </mxCell>
        <mxCell id="frDGmIUV9sdT1yF0FRaX-20" value="Bejelentkezés" style="text;html=1;resizable=0;autosize=1;align=center;verticalAlign=middle;points=[];fillColor=none;strokeColor=none;rounded=0;sketch=0;" parent="frDGmIUV9sdT1yF0FRaX-17" vertex="1">
          <mxGeometry x="20" y="25" width="100" height="30" as="geometry" />
        </mxCell>
        <mxCell id="frDGmIUV9sdT1yF0FRaX-21" value="" style="rounded=0;whiteSpace=wrap;html=1;sketch=0;strokeColor=#000000;align=left;" parent="frDGmIUV9sdT1yF0FRaX-17" vertex="1">
          <mxGeometry x="30" y="-10" width="110" height="30" as="geometry" />
        </mxCell>
        <mxCell id="frDGmIUV9sdT1yF0FRaX-19" value="2." style="text;html=1;resizable=0;autosize=1;align=center;verticalAlign=middle;points=[];fillColor=none;rounded=0;sketch=0;strokeColor=#000000;" parent="frDGmIUV9sdT1yF0FRaX-17" vertex="1">
          <mxGeometry y="-10" width="30" height="30" as="geometry" />
        </mxCell>
        <mxCell id="frDGmIUV9sdT1yF0FRaX-22" value="" style="group" parent="1" vertex="1" connectable="0">
          <mxGeometry x="320" y="250" width="140" height="90" as="geometry" />
        </mxCell>
        <mxCell id="frDGmIUV9sdT1yF0FRaX-23" value="" style="html=1;dashed=0;whitespace=wrap;rounded=0;sketch=0;strokeColor=#000000;align=left;" parent="frDGmIUV9sdT1yF0FRaX-22" vertex="1">
          <mxGeometry width="140" height="90" as="geometry" />
        </mxCell>
        <mxCell id="frDGmIUV9sdT1yF0FRaX-25" value="Regisztráció" style="text;html=1;resizable=0;autosize=1;align=center;verticalAlign=middle;points=[];fillColor=none;strokeColor=none;rounded=0;sketch=0;" parent="frDGmIUV9sdT1yF0FRaX-22" vertex="1">
          <mxGeometry x="25" y="40.005" width="90" height="30" as="geometry" />
        </mxCell>
        <mxCell id="frDGmIUV9sdT1yF0FRaX-26" value="" style="rounded=0;whiteSpace=wrap;html=1;sketch=0;strokeColor=#000000;align=left;" parent="frDGmIUV9sdT1yF0FRaX-22" vertex="1">
          <mxGeometry x="30" width="110" height="30" as="geometry" />
        </mxCell>
        <mxCell id="frDGmIUV9sdT1yF0FRaX-24" value="3." style="text;html=1;resizable=0;autosize=1;align=center;verticalAlign=middle;points=[];fillColor=none;rounded=0;sketch=0;strokeColor=#000000;" parent="frDGmIUV9sdT1yF0FRaX-22" vertex="1">
          <mxGeometry x="-5.684341886080802e-14" width="30" height="30" as="geometry" />
        </mxCell>
        <mxCell id="frDGmIUV9sdT1yF0FRaX-29" value="" style="endArrow=classic;html=1;rounded=0;exitX=0.547;exitY=1.007;exitDx=0;exitDy=0;exitPerimeter=0;" parent="1" source="frDGmIUV9sdT1yF0FRaX-2" edge="1">
          <mxGeometry relative="1" as="geometry">
            <mxPoint x="220" y="170" as="sourcePoint" />
            <mxPoint x="320" y="170" as="targetPoint" />
            <Array as="points">
              <mxPoint x="-50" y="170" />
            </Array>
          </mxGeometry>
        </mxCell>
        <mxCell id="frDGmIUV9sdT1yF0FRaX-30" value="Bejelentkezéshez szükséges adatok" style="edgeLabel;resizable=0;html=1;align=center;verticalAlign=middle;" parent="frDGmIUV9sdT1yF0FRaX-29" connectable="0" vertex="1">
          <mxGeometry relative="1" as="geometry">
            <mxPoint x="25" y="-10" as="offset" />
          </mxGeometry>
        </mxCell>
        <mxCell id="frDGmIUV9sdT1yF0FRaX-31" value="" style="endArrow=classic;html=1;rounded=0;exitX=0;exitY=0.75;exitDx=0;exitDy=0;entryX=0.268;entryY=0.942;entryDx=0;entryDy=0;entryPerimeter=0;" parent="1" source="frDGmIUV9sdT1yF0FRaX-18" target="frDGmIUV9sdT1yF0FRaX-2" edge="1">
          <mxGeometry relative="1" as="geometry">
            <mxPoint x="360" y="230" as="sourcePoint" />
            <mxPoint x="80" y="110" as="targetPoint" />
            <Array as="points">
              <mxPoint x="-80" y="200" />
            </Array>
          </mxGeometry>
        </mxCell>
        <mxCell id="frDGmIUV9sdT1yF0FRaX-32" value="Információ a bejelentkezés sikerességéről" style="edgeLabel;resizable=0;html=1;align=center;verticalAlign=middle;" parent="frDGmIUV9sdT1yF0FRaX-31" connectable="0" vertex="1">
          <mxGeometry relative="1" as="geometry">
            <mxPoint x="84" y="11" as="offset" />
          </mxGeometry>
        </mxCell>
        <mxCell id="frDGmIUV9sdT1yF0FRaX-33" value="" style="endArrow=classic;html=1;rounded=0;entryX=0;entryY=0.5;entryDx=0;entryDy=0;exitX=0.186;exitY=0.88;exitDx=0;exitDy=0;exitPerimeter=0;" parent="1" source="frDGmIUV9sdT1yF0FRaX-2" target="frDGmIUV9sdT1yF0FRaX-23" edge="1">
          <mxGeometry relative="1" as="geometry">
            <mxPoint x="70" y="110" as="sourcePoint" />
            <mxPoint x="460" y="230" as="targetPoint" />
            <Array as="points">
              <mxPoint x="-90" y="296" />
            </Array>
          </mxGeometry>
        </mxCell>
        <mxCell id="frDGmIUV9sdT1yF0FRaX-34" value="Regisztrációhoz szükséges adatok" style="edgeLabel;resizable=0;html=1;align=center;verticalAlign=middle;" parent="frDGmIUV9sdT1yF0FRaX-33" connectable="0" vertex="1">
          <mxGeometry relative="1" as="geometry">
            <mxPoint x="105" y="-11" as="offset" />
          </mxGeometry>
        </mxCell>
        <mxCell id="frDGmIUV9sdT1yF0FRaX-37" value="" style="endArrow=classic;html=1;rounded=0;exitX=-0.005;exitY=0.907;exitDx=0;exitDy=0;exitPerimeter=0;entryX=0;entryY=1;entryDx=0;entryDy=0;" parent="1" source="frDGmIUV9sdT1yF0FRaX-23" target="frDGmIUV9sdT1yF0FRaX-2" edge="1">
          <mxGeometry relative="1" as="geometry">
            <mxPoint x="360" y="230" as="sourcePoint" />
            <mxPoint x="60" y="100" as="targetPoint" />
            <Array as="points">
              <mxPoint x="-96" y="332" />
            </Array>
          </mxGeometry>
        </mxCell>
        <mxCell id="frDGmIUV9sdT1yF0FRaX-38" value="Információ a regisztráció sikerességéről" style="edgeLabel;resizable=0;html=1;align=center;verticalAlign=middle;" parent="frDGmIUV9sdT1yF0FRaX-37" connectable="0" vertex="1">
          <mxGeometry relative="1" as="geometry">
            <mxPoint x="202" y="10" as="offset" />
          </mxGeometry>
        </mxCell>
        <mxCell id="frDGmIUV9sdT1yF0FRaX-41" value="Bejelentkezett felhasználó" style="ellipse;whiteSpace=wrap;html=1;" parent="1" vertex="1">
          <mxGeometry x="770" y="130" width="120" height="80" as="geometry" />
        </mxCell>
        <mxCell id="frDGmIUV9sdT1yF0FRaX-42" value="" style="endArrow=classic;html=1;rounded=0;entryX=1;entryY=0.5;entryDx=0;entryDy=0;exitX=-0.001;exitY=0.386;exitDx=0;exitDy=0;exitPerimeter=0;" parent="1" source="frDGmIUV9sdT1yF0FRaX-5" target="frDGmIUV9sdT1yF0FRaX-2" edge="1">
          <mxGeometry relative="1" as="geometry">
            <mxPoint x="320" y="60" as="sourcePoint" />
            <mxPoint x="153.8908729652601" y="77.32233047033645" as="targetPoint" />
          </mxGeometry>
        </mxCell>
        <mxCell id="frDGmIUV9sdT1yF0FRaX-43" value="Könyvek listája" style="edgeLabel;resizable=0;html=1;align=center;verticalAlign=middle;rotation=0;" parent="frDGmIUV9sdT1yF0FRaX-42" connectable="0" vertex="1">
          <mxGeometry relative="1" as="geometry">
            <mxPoint x="112" y="-7" as="offset" />
          </mxGeometry>
        </mxCell>
        <mxCell id="frDGmIUV9sdT1yF0FRaX-44" value="" style="endArrow=classic;html=1;rounded=0;exitX=1;exitY=0.75;exitDx=0;exitDy=0;entryX=0;entryY=0;entryDx=0;entryDy=0;" parent="1" source="frDGmIUV9sdT1yF0FRaX-5" target="frDGmIUV9sdT1yF0FRaX-41" edge="1">
          <mxGeometry relative="1" as="geometry">
            <mxPoint x="330" y="92.5" as="sourcePoint" />
            <mxPoint x="164.3900000000001" y="106.25" as="targetPoint" />
            <Array as="points">
              <mxPoint x="788" y="83" />
            </Array>
          </mxGeometry>
        </mxCell>
        <mxCell id="frDGmIUV9sdT1yF0FRaX-45" value="Könyv adatlapja" style="edgeLabel;resizable=0;html=1;align=center;verticalAlign=middle;rotation=0;" parent="frDGmIUV9sdT1yF0FRaX-44" connectable="0" vertex="1">
          <mxGeometry relative="1" as="geometry">
            <mxPoint x="26" y="14" as="offset" />
          </mxGeometry>
        </mxCell>
        <mxCell id="frDGmIUV9sdT1yF0FRaX-46" value="" style="group" parent="1" vertex="1" connectable="0">
          <mxGeometry x="319.99999999999994" y="380" width="140" height="80" as="geometry" />
        </mxCell>
        <mxCell id="frDGmIUV9sdT1yF0FRaX-47" value="" style="html=1;dashed=0;whitespace=wrap;rounded=0;sketch=0;strokeColor=#000000;align=left;" parent="frDGmIUV9sdT1yF0FRaX-46" vertex="1">
          <mxGeometry y="-10" width="140" height="90" as="geometry" />
        </mxCell>
        <mxCell id="frDGmIUV9sdT1yF0FRaX-48" value="4." style="text;html=1;resizable=0;autosize=1;align=center;verticalAlign=middle;points=[];fillColor=none;rounded=0;sketch=0;strokeColor=#000000;" parent="frDGmIUV9sdT1yF0FRaX-46" vertex="1">
          <mxGeometry y="-10" width="30" height="30" as="geometry" />
        </mxCell>
        <mxCell id="frDGmIUV9sdT1yF0FRaX-49" value="Vásárlás" style="text;html=1;resizable=0;autosize=1;align=center;verticalAlign=middle;points=[];fillColor=none;strokeColor=none;rounded=0;sketch=0;" parent="frDGmIUV9sdT1yF0FRaX-46" vertex="1">
          <mxGeometry x="35" y="25" width="70" height="30" as="geometry" />
        </mxCell>
        <mxCell id="frDGmIUV9sdT1yF0FRaX-50" value="" style="rounded=0;whiteSpace=wrap;html=1;sketch=0;strokeColor=#000000;align=left;" parent="frDGmIUV9sdT1yF0FRaX-46" vertex="1">
          <mxGeometry x="30" y="-10" width="110" height="30" as="geometry" />
        </mxCell>
        <mxCell id="l6XhNteA-fRUSBPGIW-Q-11" value="" style="endArrow=none;html=1;rounded=0;entryX=0.997;entryY=0.722;entryDx=0;entryDy=0;exitX=0.75;exitY=1;exitDx=0;exitDy=0;entryPerimeter=0;" parent="frDGmIUV9sdT1yF0FRaX-46" edge="1">
          <mxGeometry width="50" height="50" relative="1" as="geometry">
            <mxPoint x="102.95000000000005" y="80" as="sourcePoint" />
            <mxPoint x="140.00000000000023" y="51.660000000000025" as="targetPoint" />
          </mxGeometry>
        </mxCell>
        <mxCell id="l6XhNteA-fRUSBPGIW-Q-12" value="" style="dashed=0;aspect=fixed;verticalLabelPosition=bottom;verticalAlign=top;align=center;shape=mxgraph.gmdl.star;strokeColor=none;fillColor=#737373;shadow=0;sketch=0;" parent="frDGmIUV9sdT1yF0FRaX-46" vertex="1">
          <mxGeometry x="124.45000000000005" y="65" width="10" height="10" as="geometry" />
        </mxCell>
        <mxCell id="frDGmIUV9sdT1yF0FRaX-55" value="" style="endArrow=classic;html=1;rounded=0;exitX=0.576;exitY=0.994;exitDx=0;exitDy=0;exitPerimeter=0;" parent="1" source="frDGmIUV9sdT1yF0FRaX-41" edge="1">
          <mxGeometry relative="1" as="geometry">
            <mxPoint x="380" y="320" as="sourcePoint" />
            <mxPoint x="460" y="410" as="targetPoint" />
            <Array as="points">
              <mxPoint x="840" y="410" />
            </Array>
          </mxGeometry>
        </mxCell>
        <mxCell id="frDGmIUV9sdT1yF0FRaX-56" value="Vásárlással kapcsolatos adatok" style="edgeLabel;resizable=0;html=1;align=center;verticalAlign=middle;" parent="frDGmIUV9sdT1yF0FRaX-55" connectable="0" vertex="1">
          <mxGeometry relative="1" as="geometry">
            <mxPoint x="-91" y="-10" as="offset" />
          </mxGeometry>
        </mxCell>
        <mxCell id="frDGmIUV9sdT1yF0FRaX-57" value="" style="endArrow=classic;html=1;rounded=0;entryX=1;entryY=1;entryDx=0;entryDy=0;" parent="1" target="frDGmIUV9sdT1yF0FRaX-41" edge="1">
          <mxGeometry relative="1" as="geometry">
            <mxPoint x="460" y="448.24" as="sourcePoint" />
            <mxPoint x="672.9599999999998" y="220" as="targetPoint" />
            <Array as="points">
              <mxPoint x="872" y="450" />
            </Array>
          </mxGeometry>
        </mxCell>
        <mxCell id="frDGmIUV9sdT1yF0FRaX-58" value="Könyvek" style="edgeLabel;resizable=0;html=1;align=center;verticalAlign=middle;" parent="frDGmIUV9sdT1yF0FRaX-57" connectable="0" vertex="1">
          <mxGeometry relative="1" as="geometry">
            <mxPoint x="-97" y="-10" as="offset" />
          </mxGeometry>
        </mxCell>
        <mxCell id="VH20EEMf-TcvK8RY82ql-10" value="" style="group" parent="1" vertex="1" connectable="0">
          <mxGeometry x="30" y="410" width="100" height="30" as="geometry" />
        </mxCell>
        <mxCell id="VH20EEMf-TcvK8RY82ql-11" value="L1&lt;span style=&quot;white-space: pre;&quot;&gt;&#x9;&lt;/span&gt;Könyvek" style="html=1;dashed=0;whitespace=wrap;shape=mxgraph.dfd.dataStoreID;align=left;spacingLeft=3;points=[[0,0],[0.5,0],[1,0],[0,0.5],[1,0.5],[0,1],[0.5,1],[1,1]];" parent="VH20EEMf-TcvK8RY82ql-10" vertex="1">
          <mxGeometry width="100" height="30" as="geometry" />
        </mxCell>
        <mxCell id="VH20EEMf-TcvK8RY82ql-12" value="" style="whiteSpace=wrap;html=1;" parent="VH20EEMf-TcvK8RY82ql-10" vertex="1">
          <mxGeometry width="5" height="30" as="geometry" />
        </mxCell>
        <mxCell id="VH20EEMf-TcvK8RY82ql-15" value="" style="endArrow=classic;html=1;rounded=0;startArrow=classic;startFill=1;" parent="1" edge="1">
          <mxGeometry relative="1" as="geometry">
            <mxPoint x="320" y="420" as="sourcePoint" />
            <mxPoint x="130" y="420" as="targetPoint" />
          </mxGeometry>
        </mxCell>
        <mxCell id="VH20EEMf-TcvK8RY82ql-29" value="" style="endArrow=classic;html=1;rounded=0;exitX=1;exitY=1;exitDx=0;exitDy=0;entryX=0;entryY=0.379;entryDx=0;entryDy=0;entryPerimeter=0;" parent="1" source="frDGmIUV9sdT1yF0FRaX-21" target="frDGmIUV9sdT1yF0FRaX-41" edge="1">
          <mxGeometry relative="1" as="geometry">
            <mxPoint x="320" y="280" as="sourcePoint" />
            <mxPoint x="420" y="280" as="targetPoint" />
            <Array as="points" />
          </mxGeometry>
        </mxCell>
        <mxCell id="VH20EEMf-TcvK8RY82ql-30" value="Átirányítás" style="edgeLabel;resizable=0;html=1;align=center;verticalAlign=middle;rotation=0;" parent="VH20EEMf-TcvK8RY82ql-29" connectable="0" vertex="1">
          <mxGeometry relative="1" as="geometry">
            <mxPoint x="-15" y="-16" as="offset" />
          </mxGeometry>
        </mxCell>
        <mxCell id="VH20EEMf-TcvK8RY82ql-33" value="" style="endArrow=classic;html=1;rounded=0;exitX=1;exitY=0;exitDx=0;exitDy=0;entryX=-0.056;entryY=0.549;entryDx=0;entryDy=0;entryPerimeter=0;" parent="1" source="frDGmIUV9sdT1yF0FRaX-2" target="frDGmIUV9sdT1yF0FRaX-6" edge="1">
          <mxGeometry relative="1" as="geometry">
            <mxPoint x="320" y="280" as="sourcePoint" />
            <mxPoint x="420" y="280" as="targetPoint" />
          </mxGeometry>
        </mxCell>
        <mxCell id="VH20EEMf-TcvK8RY82ql-34" value="Keresés" style="edgeLabel;resizable=0;html=1;align=center;verticalAlign=middle;rotation=0;" parent="VH20EEMf-TcvK8RY82ql-33" connectable="0" vertex="1">
          <mxGeometry relative="1" as="geometry">
            <mxPoint x="-26" y="-11" as="offset" />
          </mxGeometry>
        </mxCell>
        <mxCell id="VH20EEMf-TcvK8RY82ql-35" value="" style="endArrow=classic;html=1;rounded=0;exitX=0.684;exitY=0.019;exitDx=0;exitDy=0;entryX=1;entryY=0.389;entryDx=0;entryDy=0;entryPerimeter=0;exitPerimeter=0;" parent="1" source="frDGmIUV9sdT1yF0FRaX-41" target="frDGmIUV9sdT1yF0FRaX-5" edge="1">
          <mxGeometry relative="1" as="geometry">
            <mxPoint x="652.9964196847673" y="140.00402579608473" as="sourcePoint" />
            <mxPoint x="827.3" y="102.12000000000009" as="targetPoint" />
            <Array as="points">
              <mxPoint x="852" y="50" />
            </Array>
          </mxGeometry>
        </mxCell>
        <mxCell id="VH20EEMf-TcvK8RY82ql-36" value="Keresés" style="edgeLabel;resizable=0;html=1;align=center;verticalAlign=middle;rotation=0;" parent="VH20EEMf-TcvK8RY82ql-35" connectable="0" vertex="1">
          <mxGeometry relative="1" as="geometry">
            <mxPoint x="93" y="-10" as="offset" />
          </mxGeometry>
        </mxCell>
        <mxCell id="VH20EEMf-TcvK8RY82ql-48" value="L3&lt;span style=&quot;white-space: pre;&quot;&gt;&#x9;&lt;/span&gt;Áruházak" style="html=1;dashed=0;whitespace=wrap;shape=mxgraph.dfd.dataStoreID;align=left;spacingLeft=3;points=[[0,0],[0.5,0],[1,0],[0,0.5],[1,0.5],[0,1],[0.5,1],[1,1]];" parent="1" vertex="1">
          <mxGeometry x="75" y="460" width="100" height="30" as="geometry" />
        </mxCell>
        <mxCell id="VH20EEMf-TcvK8RY82ql-56" value="" style="endArrow=classic;html=1;rounded=0;entryX=0.657;entryY=1.052;entryDx=0;entryDy=0;entryPerimeter=0;startArrow=classic;startFill=1;exitX=-0.004;exitY=0.549;exitDx=0;exitDy=0;exitPerimeter=0;" parent="1" source="l6XhNteA-fRUSBPGIW-Q-5" target="VH20EEMf-TcvK8RY82ql-48" edge="1">
          <mxGeometry relative="1" as="geometry">
            <mxPoint x="320" y="528" as="sourcePoint" />
            <mxPoint x="650" y="510" as="targetPoint" />
            <Array as="points">
              <mxPoint x="141" y="528" />
            </Array>
          </mxGeometry>
        </mxCell>
        <mxCell id="l6XhNteA-fRUSBPGIW-Q-4" value="" style="group" parent="1" vertex="1" connectable="0">
          <mxGeometry x="325" y="490" width="140" height="80" as="geometry" />
        </mxCell>
        <mxCell id="l6XhNteA-fRUSBPGIW-Q-5" value="" style="html=1;dashed=0;whitespace=wrap;rounded=0;sketch=0;strokeColor=#000000;align=left;" parent="l6XhNteA-fRUSBPGIW-Q-4" vertex="1">
          <mxGeometry y="-10" width="140" height="90" as="geometry" />
        </mxCell>
        <mxCell id="l6XhNteA-fRUSBPGIW-Q-6" value="5." style="text;html=1;resizable=0;autosize=1;align=center;verticalAlign=middle;points=[];fillColor=none;rounded=0;sketch=0;strokeColor=#000000;" parent="l6XhNteA-fRUSBPGIW-Q-4" vertex="1">
          <mxGeometry y="-10" width="30" height="30" as="geometry" />
        </mxCell>
        <mxCell id="l6XhNteA-fRUSBPGIW-Q-7" value="Könyvek, Műfajok,&lt;br&gt;Áruházak és&lt;br&gt;Készletek kezelése" style="text;html=1;resizable=0;autosize=1;align=center;verticalAlign=middle;points=[];fillColor=none;strokeColor=none;rounded=0;sketch=0;" parent="l6XhNteA-fRUSBPGIW-Q-4" vertex="1">
          <mxGeometry x="10" y="16" width="120" height="64" as="geometry" />
        </mxCell>
        <mxCell id="l6XhNteA-fRUSBPGIW-Q-8" value="" style="rounded=0;whiteSpace=wrap;html=1;sketch=0;strokeColor=#000000;align=left;" parent="l6XhNteA-fRUSBPGIW-Q-4" vertex="1">
          <mxGeometry x="30" y="-10" width="110" height="30" as="geometry" />
        </mxCell>
        <mxCell id="l6XhNteA-fRUSBPGIW-Q-13" value="" style="endArrow=none;html=1;rounded=0;entryX=0.997;entryY=0.722;entryDx=0;entryDy=0;exitX=0.75;exitY=1;exitDx=0;exitDy=0;entryPerimeter=0;" parent="l6XhNteA-fRUSBPGIW-Q-4" edge="1">
          <mxGeometry width="50" height="50" relative="1" as="geometry">
            <mxPoint x="102.95000000000005" y="80" as="sourcePoint" />
            <mxPoint x="140" y="51.66000000000008" as="targetPoint" />
          </mxGeometry>
        </mxCell>
        <mxCell id="l6XhNteA-fRUSBPGIW-Q-14" value="" style="dashed=0;aspect=fixed;verticalLabelPosition=bottom;verticalAlign=top;align=center;shape=mxgraph.gmdl.star;strokeColor=none;fillColor=#737373;shadow=0;sketch=0;" parent="l6XhNteA-fRUSBPGIW-Q-4" vertex="1">
          <mxGeometry x="124.44999999999999" y="65" width="10" height="10" as="geometry" />
        </mxCell>
        <mxCell id="l6XhNteA-fRUSBPGIW-Q-15" value="" style="group" parent="1" vertex="1" connectable="0">
          <mxGeometry x="550" y="490" width="140" height="80" as="geometry" />
        </mxCell>
        <mxCell id="l6XhNteA-fRUSBPGIW-Q-16" value="" style="html=1;dashed=0;whitespace=wrap;rounded=0;sketch=0;strokeColor=#000000;align=left;" parent="l6XhNteA-fRUSBPGIW-Q-15" vertex="1">
          <mxGeometry y="-10" width="140" height="90" as="geometry" />
        </mxCell>
        <mxCell id="l6XhNteA-fRUSBPGIW-Q-17" value="6." style="text;html=1;resizable=0;autosize=1;align=center;verticalAlign=middle;points=[];fillColor=none;rounded=0;sketch=0;strokeColor=#000000;" parent="l6XhNteA-fRUSBPGIW-Q-15" vertex="1">
          <mxGeometry y="-10" width="30" height="30" as="geometry" />
        </mxCell>
        <mxCell id="l6XhNteA-fRUSBPGIW-Q-18" value="Kijelentkezés" style="text;html=1;resizable=0;autosize=1;align=center;verticalAlign=middle;points=[];fillColor=none;strokeColor=none;rounded=0;sketch=0;" parent="l6XhNteA-fRUSBPGIW-Q-15" vertex="1">
          <mxGeometry x="25" y="25" width="90" height="30" as="geometry" />
        </mxCell>
        <mxCell id="l6XhNteA-fRUSBPGIW-Q-19" value="" style="rounded=0;whiteSpace=wrap;html=1;sketch=0;strokeColor=#000000;align=left;" parent="l6XhNteA-fRUSBPGIW-Q-15" vertex="1">
          <mxGeometry x="30" y="-10" width="110" height="30" as="geometry" />
        </mxCell>
        <mxCell id="l6XhNteA-fRUSBPGIW-Q-20" value="" style="dashed=0;aspect=fixed;verticalLabelPosition=bottom;verticalAlign=top;align=center;shape=mxgraph.gmdl.star;strokeColor=none;fillColor=#737373;shadow=0;sketch=0;" parent="l6XhNteA-fRUSBPGIW-Q-15" vertex="1">
          <mxGeometry x="124" y="66" width="10" height="10" as="geometry" />
        </mxCell>
        <mxCell id="l6XhNteA-fRUSBPGIW-Q-21" value="" style="endArrow=none;html=1;rounded=0;entryX=0.997;entryY=0.722;entryDx=0;entryDy=0;exitX=0.75;exitY=1;exitDx=0;exitDy=0;entryPerimeter=0;" parent="l6XhNteA-fRUSBPGIW-Q-15" edge="1">
          <mxGeometry width="50" height="50" relative="1" as="geometry">
            <mxPoint x="102.94999999999982" y="80" as="sourcePoint" />
            <mxPoint x="140" y="51.66000000000008" as="targetPoint" />
          </mxGeometry>
        </mxCell>
        <mxCell id="l6XhNteA-fRUSBPGIW-Q-25" value="" style="endArrow=classic;html=1;rounded=0;exitX=1;exitY=0.5;exitDx=0;exitDy=0;entryX=1;entryY=0.5;entryDx=0;entryDy=0;" parent="1" source="frDGmIUV9sdT1yF0FRaX-41" target="l6XhNteA-fRUSBPGIW-Q-19" edge="1">
          <mxGeometry relative="1" as="geometry">
            <mxPoint x="880" y="300" as="sourcePoint" />
            <mxPoint x="980" y="300" as="targetPoint" />
            <Array as="points">
              <mxPoint x="920" y="170" />
              <mxPoint x="920" y="495" />
            </Array>
          </mxGeometry>
        </mxCell>
        <mxCell id="l6XhNteA-fRUSBPGIW-Q-26" value="Felhasználói adatok" style="edgeLabel;resizable=0;html=1;align=center;verticalAlign=middle;" parent="l6XhNteA-fRUSBPGIW-Q-25" connectable="0" vertex="1">
          <mxGeometry relative="1" as="geometry">
            <mxPoint x="-70" y="50" as="offset" />
          </mxGeometry>
        </mxCell>
        <mxCell id="qAkZYKRt1gs195-cK2a0-1" value="" style="group" parent="1" vertex="1" connectable="0">
          <mxGeometry x="576" y="240" width="100" height="30" as="geometry" />
        </mxCell>
        <mxCell id="qAkZYKRt1gs195-cK2a0-2" value="L2&lt;span style=&quot;white-space: pre;&quot;&gt;&#x9;&lt;/span&gt;Felhasználók" style="html=1;dashed=0;whitespace=wrap;shape=mxgraph.dfd.dataStoreID;align=left;spacingLeft=3;points=[[0,0],[0.5,0],[1,0],[0,0.5],[1,0.5],[0,1],[0.5,1],[1,1]];" parent="qAkZYKRt1gs195-cK2a0-1" vertex="1">
          <mxGeometry width="100" height="30" as="geometry" />
        </mxCell>
        <mxCell id="qAkZYKRt1gs195-cK2a0-3" value="" style="whiteSpace=wrap;html=1;" parent="qAkZYKRt1gs195-cK2a0-1" vertex="1">
          <mxGeometry width="5" height="30" as="geometry" />
        </mxCell>
        <mxCell id="qAkZYKRt1gs195-cK2a0-12" style="edgeStyle=orthogonalEdgeStyle;rounded=0;orthogonalLoop=1;jettySize=auto;html=1;exitX=1;exitY=0.75;exitDx=0;exitDy=0;entryX=0.402;entryY=-0.033;entryDx=0;entryDy=0;entryPerimeter=0;startArrow=classic;startFill=1;endArrow=classic;endFill=1;" parent="1" source="frDGmIUV9sdT1yF0FRaX-18" target="qAkZYKRt1gs195-cK2a0-2" edge="1">
          <mxGeometry relative="1" as="geometry" />
        </mxCell>
        <mxCell id="qAkZYKRt1gs195-cK2a0-13" style="edgeStyle=orthogonalEdgeStyle;rounded=0;orthogonalLoop=1;jettySize=auto;html=1;exitX=1;exitY=0.75;exitDx=0;exitDy=0;entryX=0.5;entryY=1;entryDx=0;entryDy=0;startArrow=classic;startFill=1;endArrow=classic;endFill=1;" parent="1" source="frDGmIUV9sdT1yF0FRaX-23" target="qAkZYKRt1gs195-cK2a0-2" edge="1">
          <mxGeometry relative="1" as="geometry" />
        </mxCell>
        <mxCell id="Ukmu4nqGVgtyjwzvs1U4-1" value="" style="endArrow=classic;html=1;rounded=0;exitX=-0.027;exitY=0.433;exitDx=0;exitDy=0;exitPerimeter=0;startArrow=classic;startFill=1;" parent="1" edge="1">
          <mxGeometry relative="1" as="geometry">
            <mxPoint x="325" y="562" as="sourcePoint" />
            <mxPoint x="56" y="440" as="targetPoint" />
            <Array as="points">
              <mxPoint x="56" y="562" />
            </Array>
          </mxGeometry>
        </mxCell>
      </root>
    </mxGraphModel>
  </diagram>
</mxfile>
